<mxfile host="app.diagrams.net" modified="2023-06-10T01:40:26.794Z" agent="Mozilla/5.0 (X11; Linux x86_64) AppleWebKit/537.36 (KHTML, like Gecko) Chrome/113.0.0.0 Safari/537.36" version="21.3.8" etag="bXBo3RGK0mLGxwNjSL7_" type="github">
  <diagram name="PÃ¡gina-1" id="MvnzBLK_hgWgFrCIBaNy">
    <mxGraphModel>
      <root>
        <mxCell id="0" />
        <mxCell id="1" parent="0" />
      </root>
    </mxGraphModel>
  </diagram>
</mxfile>
